<svg width="700" height="367" viewBox="0 0 700 367" fill="none" xmlns="http://www.w3.org/2000/svg">
<rect width="700" height="367" fill="url(#paint0_linear_25_745)"/>
<path fill-rule="evenodd" clip-rule="evenodd" d="M201.467 62.6793H211.411C212.295 62.6793 213.011 63.3965 213.011 64.2806L212.823 295.991H201.467L201.467 62.6793Z" fill="#DEE6FD"/>
<path fill-rule="evenodd" clip-rule="evenodd" d="M212.935 64.4569L250.15 107.58V295.991H212.397L212.935 64.4569Z" fill="white"/>
<path fill-rule="evenodd" clip-rule="evenodd" d="M233.403 106.575H239.708C240.593 106.575 241.31 107.293 241.308 108.178L241.182 171.951H233.403V106.575Z" fill="#DEE6FD"/>
<path d="M212.14 62.6793H201.467L201.467 295.991H250.15V107.58C244.429 100.782 212.14 62.6793 212.14 62.6793Z" stroke="#333333" stroke-linejoin="round"/>
<rect x="340.302" y="41.5" width="86.942" height="56.7397" rx="5.5" fill="white" stroke="#DEE6FD"/>
<path d="M368.75 55.3245V84.1995C368.75 84.7517 369.198 85.1995 369.75 85.1995H376.373C376.925 85.1995 377.373 84.7517 377.373 84.1995V55.3245C377.373 54.7722 376.925 54.3245 376.373 54.3245H369.75C369.198 54.3245 368.75 54.7722 368.75 55.3245Z" fill="#676DFD"/>
<path d="M356.679 69.7328V84.1995C356.679 84.7517 357.127 85.1995 357.679 85.1995H362.577C363.13 85.1995 363.577 84.7517 363.577 84.1995V69.7328C363.577 69.1805 363.13 68.7328 362.577 68.7328H357.679C357.127 68.7328 356.679 69.1805 356.679 69.7328Z" fill="#676DFD"/>
<path d="M382.548 63.5578V84.1995C382.548 84.7517 382.996 85.1995 383.548 85.1995H388.447C388.999 85.1995 389.447 84.7517 389.447 84.1995V63.5578C389.447 63.0056 388.999 62.5578 388.447 62.5578H383.548C382.996 62.5578 382.548 63.0056 382.548 63.5578Z" fill="#676DFD"/>
<path d="M394.621 69.7328V84.1995C394.621 84.7517 395.068 85.1995 395.621 85.1995H400.519C401.071 85.1995 401.519 84.7517 401.519 84.1995V69.7328C401.519 69.1805 401.071 68.7328 400.519 68.7328H395.621C395.068 68.7328 394.621 69.1805 394.621 69.7328Z" fill="#676DFD"/>
<path d="M405.312 64.7427V84.5292C405.312 85.0815 405.759 85.5292 406.312 85.5292H410.754C411.306 85.5292 411.754 85.0815 411.754 84.5292V64.7427C411.754 64.1904 411.306 63.7427 410.754 63.7427H406.312C405.759 63.7427 405.312 64.1904 405.312 64.7427Z" fill="#676DFD"/>
<circle cx="384.217" cy="98.7397" r="5.71812" fill="white" stroke="#DEE6FD"/>
<path d="M384.217 104.958L384.217 193.788" stroke="#DEE6FD"/>
<rect x="144.155" y="106.538" width="49.5852" height="49.5852" rx="5.5" fill="white" stroke="#DEE6FD"/>
<circle cx="169.465" cy="130.815" r="10.8235" fill="white" stroke="#676DFD"/>
<path d="M168.818 120.491C166.7 120.491 164.629 121.119 162.868 122.296C161.107 123.473 159.734 125.145 158.924 127.102C158.113 129.059 157.901 131.213 158.314 133.29C158.727 135.368 159.747 137.276 161.245 138.774C162.743 140.272 164.651 141.292 166.729 141.705C168.806 142.118 170.96 141.906 172.917 141.095C174.874 140.285 177.723 137.151 177.723 137.151L168.818 131.201V120.491Z" fill="#676DFD"/>
<circle cx="168.432" cy="155.591" r="6.72646" fill="white" stroke="#DEE6FD"/>
<path d="M168.432 162.817L168.432 240.244" stroke="#DEE6FD"/>
<path d="M448 141C448 117.252 467.252 98 491 98H503V296H448V141Z" fill="#DEE6FD"/>
<rect x="525.013" y="85.8911" width="65.461" height="72.0135" rx="5.5" fill="white" stroke="#DEE6FD"/>
<path d="M542.298 121.898L548.793 115.677L550.884 118.568L559.234 111.064L562.726 114.546L573.189 104.113" stroke="#676DFD" stroke-miterlimit="10"/>
<path d="M541.83 123.77C542.605 123.77 543.234 123.141 543.234 122.366C543.234 121.59 542.605 120.962 541.83 120.962C541.054 120.962 540.426 121.59 540.426 122.366C540.426 123.141 541.054 123.77 541.83 123.77Z" fill="#676DFD" stroke="#676DFD" stroke-miterlimit="10"/>
<path d="M559.616 112.537C560.391 112.537 561.02 111.909 561.02 111.133C561.02 110.358 560.391 109.729 559.616 109.729C558.841 109.729 558.212 110.358 558.212 111.133C558.212 111.909 558.841 112.537 559.616 112.537Z" fill="#676DFD" stroke="#676DFD" stroke-miterlimit="10"/>
<path d="M572.721 105.984C573.496 105.984 574.125 105.356 574.125 104.58C574.125 103.805 573.496 103.176 572.721 103.176C571.946 103.176 571.317 103.805 571.317 104.58C571.317 105.356 571.946 105.984 572.721 105.984Z" fill="#676DFD" stroke="#676DFD" stroke-miterlimit="10"/>
<path d="M548.383 117.218C549.158 117.218 549.787 116.379 549.787 115.345C549.787 114.311 549.158 113.473 548.383 113.473C547.607 113.473 546.979 114.311 546.979 115.345C546.979 116.379 547.607 117.218 548.383 117.218Z" fill="#676DFD" stroke="#676DFD" stroke-miterlimit="10"/>
<path d="M537.618 131.259H561.956" stroke="#DEE6FD"/>
<path d="M537.618 135.939H561.956" stroke="#DEE6FD"/>
<path d="M537.618 140.619H555.404" stroke="#DEE6FD"/>
<circle cx="558.163" cy="159.216" r="5.20882" fill="white" stroke="#DEE6FD"/>
<path d="M558.164 164.925V266.053" stroke="#DEE6FD"/>
<path d="M95 171L153 197.86V296H95V171Z" fill="#DEE6FD"/>
<path d="M274 97H331V296H274V97Z" fill="#DEE6FD"/>
<path fill-rule="evenodd" clip-rule="evenodd" d="M471.26 295.008H426.981V111.2H449.121C461.348 111.2 471.26 120.941 471.26 132.956V295.008Z" fill="white"/>
<path fill-rule="evenodd" clip-rule="evenodd" d="M452.209 134.913V144.059H460.962V134.913C460.962 132.592 459.002 130.71 456.585 130.71C454.168 130.71 452.209 132.592 452.209 134.913Z" fill="#DEE6FD"/>
<path fill-rule="evenodd" clip-rule="evenodd" d="M436.764 134.913V144.059H445.517V134.913C445.517 132.592 443.558 130.71 441.141 130.71C438.723 130.71 436.764 132.592 436.764 134.913Z" fill="#DEE6FD"/>
<path fill-rule="evenodd" clip-rule="evenodd" d="M452.209 164.435V173.582H460.962V164.435C460.962 162.114 459.002 160.232 456.585 160.232C454.168 160.232 452.209 162.114 452.209 164.435Z" fill="#DEE6FD"/>
<path fill-rule="evenodd" clip-rule="evenodd" d="M436.764 164.435V173.582H445.517V164.435C445.517 162.114 443.558 160.232 441.141 160.232C438.723 160.232 436.764 162.114 436.764 164.435Z" fill="#DEE6FD"/>
<path fill-rule="evenodd" clip-rule="evenodd" d="M452.209 193.957V203.104H460.962V193.957C460.962 191.636 459.002 189.755 456.585 189.755C454.168 189.755 452.209 191.636 452.209 193.957Z" fill="#DEE6FD"/>
<path fill-rule="evenodd" clip-rule="evenodd" d="M436.764 193.957V203.104H445.517V193.957C445.517 191.636 443.558 189.755 441.141 189.755C438.723 189.755 436.764 191.636 436.764 193.957Z" fill="#DEE6FD"/>
<path fill-rule="evenodd" clip-rule="evenodd" d="M452.209 223.479V232.626H460.962V223.479C460.962 221.158 459.002 219.277 456.585 219.277C454.168 219.277 452.209 221.158 452.209 223.479Z" fill="#DEE6FD"/>
<path fill-rule="evenodd" clip-rule="evenodd" d="M436.764 223.479V232.626H445.517V223.479C445.517 221.158 443.558 219.277 441.141 219.277C438.723 219.277 436.764 221.158 436.764 223.479Z" fill="#DEE6FD"/>
<path fill-rule="evenodd" clip-rule="evenodd" d="M412.05 295.991H426.794V125.944H412.05V295.991Z" fill="#DEE6FD"/>
<path fill-rule="evenodd" clip-rule="evenodd" d="M441.397 111.2H426.724L412.05 126.089H426.724L441.397 111.2Z" fill="#FFBE5E"/>
<path d="M441.397 111.2L441.827 111.456L442.278 110.7H441.397V111.2ZM426.724 111.2V110.7H426.514L426.367 110.849L426.724 111.2ZM441.397 111.2L440.968 110.944L440.517 111.7H441.397V111.2ZM471.26 132.956L471.76 132.956V132.956H471.26ZM471.26 295.991L471.26 296.491L471.76 296.491L471.76 295.991L471.26 295.991ZM428.76 295.991L428.76 296.491L428.76 296.491L428.76 295.991ZM426.981 295.991L426.981 295.491L426.981 295.491L426.981 295.991ZM412.05 295.991H411.55V296.491L412.05 296.491L412.05 295.991ZM412.05 125.944V125.444H411.55V125.944H412.05ZM412.193 125.944V126.444H412.402L412.549 126.295L412.193 125.944ZM441.397 110.7H426.724V111.7H441.397V110.7ZM441.827 111.456L441.827 111.456L440.968 110.944L440.968 110.944L441.827 111.456ZM449.12 110.7H441.397V111.7H449.12V110.7ZM471.76 132.956C471.76 120.657 461.615 110.7 449.12 110.7V111.7C461.079 111.7 470.76 121.225 470.76 132.956H471.76ZM471.76 295.991L471.76 132.956L470.76 132.956L470.76 295.991L471.76 295.991ZM428.76 296.491L471.26 296.491L471.26 295.491L428.76 295.491L428.76 296.491ZM426.981 296.491L428.76 296.491L428.76 295.491L426.981 295.491L426.981 296.491ZM412.05 296.491L426.981 296.491L426.981 295.491L412.05 295.491L412.05 296.491ZM411.55 125.944V295.991H412.55V125.944H411.55ZM412.193 125.444H412.05V126.444H412.193V125.444ZM426.367 110.849L411.837 125.593L412.549 126.295L427.08 111.551L426.367 110.849Z" fill="#333333"/>
<path d="M415.945 189.221H352.19V295.991H415.945V189.221Z" fill="white"/>
<path d="M352.19 189.172H415.945L384.069 166.947L352.19 189.172Z" fill="#FFBE5E"/>
<path d="M371.082 266.659H359.274V285.433H371.082V266.659Z" fill="#DEE6FD"/>
<path d="M384.066 266.659C383.291 266.659 382.523 266.81 381.807 267.104C381.091 267.399 380.44 267.831 379.892 268.375C379.343 268.92 378.908 269.566 378.612 270.278C378.315 270.989 378.162 271.752 378.162 272.523V295.991H389.966V272.523C389.966 270.967 389.345 269.476 388.238 268.376C387.131 267.277 385.631 266.659 384.066 266.659Z" fill="#DEE6FD"/>
<path d="M408.861 266.659H397.054V285.433H408.861V266.659Z" fill="#DEE6FD"/>
<path d="M371.082 245.54H359.274V259.619H371.082V245.54Z" fill="#DEE6FD"/>
<path d="M389.973 245.54H378.166V259.619H389.973V245.54Z" fill="#DEE6FD"/>
<path d="M408.861 245.54H397.054V259.619H408.861V245.54Z" fill="#DEE6FD"/>
<path d="M371.082 224.42H359.274V238.5H371.082V224.42Z" fill="#DEE6FD"/>
<path d="M389.973 224.42H378.166V238.5H389.973V224.42Z" fill="#DEE6FD"/>
<path d="M408.861 224.42H397.054V238.5H408.861V224.42Z" fill="#DEE6FD"/>
<path d="M365.178 203.301C363.613 203.301 362.112 203.918 361.005 205.018C359.898 206.118 359.275 207.609 359.274 209.164V217.38H371.082V209.164C371.081 207.609 370.459 206.118 369.352 205.018C368.244 203.918 366.743 203.301 365.178 203.301Z" fill="#DEE6FD"/>
<path d="M384.066 203.301C383.291 203.3 382.523 203.452 381.807 203.746C381.091 204.041 380.44 204.472 379.892 205.017C379.343 205.562 378.908 206.208 378.612 206.92C378.315 207.631 378.162 208.394 378.162 209.164V217.38H389.966V209.164C389.966 207.609 389.345 206.118 388.238 205.018C387.131 203.919 385.631 203.301 384.066 203.301V203.301Z" fill="#DEE6FD"/>
<path d="M402.957 203.301C401.392 203.301 399.891 203.918 398.784 205.018C397.677 206.118 397.055 207.609 397.054 209.164V217.38H408.861V209.164C408.86 207.609 408.238 206.118 407.131 205.018C406.024 203.918 404.523 203.301 402.957 203.301Z" fill="#DEE6FD"/>
<path d="M352.191 189.172L351.904 188.762C351.785 188.845 351.708 188.976 351.693 189.12C351.678 189.264 351.727 189.408 351.826 189.514L352.191 189.172ZM352.237 189.221V189.721C352.436 189.721 352.617 189.603 352.696 189.42C352.775 189.237 352.738 189.025 352.602 188.88L352.237 189.221ZM383.965 166.947L384.253 166.538C384.08 166.417 383.851 166.416 383.678 166.537L383.965 166.947ZM415.526 189.172L415.643 189.658C415.834 189.612 415.98 189.458 416.017 189.265C416.054 189.073 415.974 188.876 415.814 188.763L415.526 189.172ZM415.321 189.221L415.204 188.735C414.957 188.795 414.795 189.029 414.824 189.281C414.854 189.532 415.068 189.721 415.321 189.721V189.221ZM415.735 189.221H416.235C416.235 188.945 416.011 188.721 415.735 188.721V189.221ZM415.735 295.991V296.491C416.011 296.491 416.235 296.267 416.235 295.991H415.735ZM352.19 295.991H351.69C351.69 296.267 351.914 296.491 352.19 296.491V295.991ZM352.19 189.221V188.721C351.914 188.721 351.69 188.945 351.69 189.221H352.19ZM351.826 189.514L351.872 189.563L352.602 188.88L352.556 188.83L351.826 189.514ZM383.678 166.537L351.904 188.762L352.477 189.582L384.251 167.357L383.678 166.537ZM415.814 188.763L384.253 166.538L383.677 167.356L415.238 189.581L415.814 188.763ZM415.438 189.707L415.643 189.658L415.409 188.686L415.204 188.735L415.438 189.707ZM415.735 188.721H415.321V189.721H415.735V188.721ZM416.235 295.991V189.221H415.235V295.991H416.235ZM352.19 296.491H415.735V295.491H352.19V296.491ZM351.69 189.221V295.991H352.69V189.221H351.69ZM352.237 188.721H352.19V189.721H352.237V188.721Z" fill="#333333"/>
<path fill-rule="evenodd" clip-rule="evenodd" d="M518.399 244.77H597.126V211.418H518.399V244.77Z" fill="white"/>
<path fill-rule="evenodd" clip-rule="evenodd" d="M518.399 244.77H597.126V211.418H518.399V244.77Z" stroke="#2D2D38" stroke-linejoin="round"/>
<path fill-rule="evenodd" clip-rule="evenodd" d="M518.399 295.991H549.412V244.77H518.399V295.991Z" fill="#FFBE5E"/>
<path fill-rule="evenodd" clip-rule="evenodd" d="M518.399 295.991H549.412V244.77H518.399V295.991Z" stroke="#2D2D38" stroke-linejoin="round"/>
<path fill-rule="evenodd" clip-rule="evenodd" d="M527.941 235.242H535.098V224.521C535.098 222.547 533.496 220.948 531.52 220.948C529.544 220.948 527.941 222.547 527.941 224.521V235.242Z" fill="#DEE6FD"/>
<path fill-rule="evenodd" clip-rule="evenodd" d="M541.063 235.242H548.22V224.521C548.22 222.547 546.618 220.948 544.642 220.948C542.665 220.948 541.063 222.547 541.063 224.521V235.242Z" fill="#FFBE5E"/>
<path fill-rule="evenodd" clip-rule="evenodd" d="M541.063 235.242H548.22V224.521C548.22 222.547 546.618 220.948 544.642 220.948C542.665 220.948 541.063 222.547 541.063 224.521V235.242Z" fill="#DEE6FD"/>
<path fill-rule="evenodd" clip-rule="evenodd" d="M554.184 235.242H561.341V224.521C561.341 222.547 559.739 220.948 557.763 220.948C555.786 220.948 554.184 222.547 554.184 224.521V235.242Z" fill="#DEE6FD"/>
<path fill-rule="evenodd" clip-rule="evenodd" d="M567.305 235.242H574.462V224.521C574.462 222.547 572.86 220.948 570.884 220.948C568.907 220.948 567.305 222.547 567.305 224.521V235.242Z" fill="#FFBE5E"/>
<path fill-rule="evenodd" clip-rule="evenodd" d="M567.305 235.242H574.462V224.521C574.462 222.547 572.86 220.948 570.884 220.948C568.907 220.948 567.305 222.547 567.305 224.521V235.242Z" fill="#DEE6FD"/>
<path fill-rule="evenodd" clip-rule="evenodd" d="M580.426 235.242H587.583V224.521C587.583 222.547 585.981 220.948 584.005 220.948H584.005C582.028 220.948 580.426 222.547 580.426 224.521V235.242Z" fill="#DEE6FD"/>
<path fill-rule="evenodd" clip-rule="evenodd" d="M589.018 203.079H518.399V211.417H597.125V211.176C597.125 206.704 593.495 203.079 589.018 203.079" fill="#FFBE5E"/>
<path fill-rule="evenodd" clip-rule="evenodd" d="M589.018 203.079H518.399V211.417H597.125V211.176C597.125 206.704 593.495 203.079 589.018 203.079Z" stroke="#2D2D38" stroke-linejoin="round"/>
<path fill-rule="evenodd" clip-rule="evenodd" d="M518.399 295.991H597.126V244.77H518.399V295.991Z" fill="white"/>
<path fill-rule="evenodd" clip-rule="evenodd" d="M518.399 295.991H597.126V244.77H518.399V295.991Z" stroke="#2D2D38" stroke-linejoin="round"/>
<path fill-rule="evenodd" clip-rule="evenodd" d="M525.556 266.211V266.211C521.603 266.211 518.399 263.012 518.399 259.064V244.77H532.713V259.064C532.713 263.012 529.509 266.211 525.556 266.211" fill="#FFBE5E"/>
<path fill-rule="evenodd" clip-rule="evenodd" d="M525.556 266.211V266.211C521.603 266.211 518.399 263.012 518.399 259.064V244.77H532.713V259.064C532.713 263.012 529.509 266.211 525.556 266.211Z" stroke="#2D2D38" stroke-linejoin="round"/>
<path fill-rule="evenodd" clip-rule="evenodd" d="M541.063 266.211V266.211C536.451 266.211 532.713 262.478 532.713 257.873V244.77H549.412V257.873C549.412 262.478 545.674 266.211 541.063 266.211" fill="#FFBE5E"/>
<path fill-rule="evenodd" clip-rule="evenodd" d="M541.063 266.211V266.211C536.451 266.211 532.713 262.478 532.713 257.873V244.77H549.412V257.873C549.412 262.478 545.674 266.211 541.063 266.211Z" stroke="#2D2D38" stroke-linejoin="round"/>
<path fill-rule="evenodd" clip-rule="evenodd" d="M557.762 266.211V266.211C553.151 266.211 549.413 262.478 549.413 257.873V244.77H566.112V257.873C566.112 262.478 562.374 266.211 557.762 266.211" fill="#FFBE5E"/>
<path fill-rule="evenodd" clip-rule="evenodd" d="M557.762 266.211V266.211C553.151 266.211 549.413 262.478 549.413 257.873V244.77H566.112V257.873C566.112 262.478 562.374 266.211 557.762 266.211Z" stroke="#2D2D38" stroke-linejoin="round"/>
<path fill-rule="evenodd" clip-rule="evenodd" d="M574.462 266.211V266.211C569.851 266.211 566.112 262.478 566.112 257.873V244.77H582.812V257.873C582.812 262.478 579.074 266.211 574.462 266.211" fill="#FFBE5E"/>
<path fill-rule="evenodd" clip-rule="evenodd" d="M574.462 266.211C569.851 266.211 566.112 262.478 566.112 257.873V244.77H582.812V257.873C582.812 262.478 579.074 266.211 574.462 266.211Z" stroke="#2D2D38" stroke-linejoin="round"/>
<path fill-rule="evenodd" clip-rule="evenodd" d="M589.969 266.211V266.211C586.017 266.211 582.812 263.012 582.812 259.064V244.77H597.126V259.064C597.126 263.012 593.922 266.211 589.969 266.211" fill="#FFBE5E"/>
<path fill-rule="evenodd" clip-rule="evenodd" d="M589.969 266.211V266.211C586.017 266.211 582.812 263.012 582.812 259.064V244.77H597.126V259.064C597.126 263.012 593.922 266.211 589.969 266.211Z" stroke="#2D2D38" stroke-linejoin="round"/>
<path d="M549.412 257.873V295.991" stroke="#2D2D38" stroke-linejoin="round"/>
<path d="M549.413 287.653H597.126" stroke="#2D2D38" stroke-linejoin="round"/>
<path fill-rule="evenodd" clip-rule="evenodd" d="M533.906 273.237V273.237C529.953 273.237 526.749 276.436 526.749 280.384V295.869H541.063V280.384C541.063 276.436 537.859 273.237 533.906 273.237" fill="#DEE6FD"/>
<path d="M573.302 266.065V287.215" stroke="#2D2D38" stroke-linejoin="round"/>
<path fill-rule="evenodd" clip-rule="evenodd" d="M229.257 120.491H265.206C266.091 120.491 266.809 121.211 266.805 122.097L266.197 295.991H229.257V120.491Z" fill="#DEE6FD"/>
<path fill-rule="evenodd" clip-rule="evenodd" d="M252.06 130.293H258.209C259.094 130.293 259.811 131.011 259.809 131.896L259.685 194.199H252.06V130.293Z" fill="white"/>
<path fill-rule="evenodd" clip-rule="evenodd" d="M252.06 211.088H258.209C259.094 211.088 259.811 211.806 259.809 212.691L259.685 274.993H252.06V211.088Z" fill="white"/>
<path fill-rule="evenodd" clip-rule="evenodd" d="M266.196 120.491L302.68 149.065V295.991H265.669L266.196 120.491Z" fill="white"/>
<path fill-rule="evenodd" clip-rule="evenodd" d="M288.543 160.048V168.18H296.296V160.048C296.296 157.985 294.56 156.312 292.419 156.312C290.278 156.312 288.543 157.985 288.543 160.048Z" fill="#DEE6FD"/>
<path fill-rule="evenodd" clip-rule="evenodd" d="M288.543 185.61V193.742H296.296V185.61C296.296 183.547 294.56 181.874 292.419 181.874C290.278 181.874 288.543 183.547 288.543 185.61Z" fill="#DEE6FD"/>
<path fill-rule="evenodd" clip-rule="evenodd" d="M274.861 160.048V168.18H282.614V160.048C282.614 157.985 280.878 156.312 278.737 156.312C276.596 156.312 274.861 157.985 274.861 160.048Z" fill="#DEE6FD"/>
<path fill-rule="evenodd" clip-rule="evenodd" d="M274.861 185.61V193.742H282.614V185.61C282.614 183.547 280.878 181.874 278.737 181.874C276.596 181.874 274.861 183.547 274.861 185.61Z" fill="#DEE6FD"/>
<path fill-rule="evenodd" clip-rule="evenodd" d="M288.543 211.172V219.304H296.296V211.172C296.296 209.109 294.56 207.436 292.419 207.436C290.278 207.436 288.543 209.109 288.543 211.172Z" fill="#DEE6FD"/>
<path fill-rule="evenodd" clip-rule="evenodd" d="M274.861 211.172V219.304H282.614V211.172C282.614 209.109 280.878 207.436 278.737 207.436C276.596 207.436 274.861 209.109 274.861 211.172Z" fill="#DEE6FD"/>
<path fill-rule="evenodd" clip-rule="evenodd" d="M288.543 236.734V244.866H296.296V236.734C296.296 234.671 294.56 232.998 292.419 232.998C290.278 232.998 288.543 234.671 288.543 236.734Z" fill="#DEE6FD"/>
<path fill-rule="evenodd" clip-rule="evenodd" d="M274.861 236.734V244.866H282.614V236.734C282.614 234.671 280.878 232.998 278.737 232.998C276.596 232.998 274.861 234.671 274.861 236.734Z" fill="#DEE6FD"/>
<path fill-rule="evenodd" clip-rule="evenodd" d="M288.543 262.297V270.429H296.296V262.297C296.296 260.233 294.56 258.561 292.419 258.561C290.278 258.561 288.543 260.233 288.543 262.297Z" fill="#DEE6FD"/>
<path d="M229.257 120.491V119.991C228.981 119.991 228.757 120.215 228.757 120.491H229.257ZM229.257 295.991H228.757C228.757 296.267 228.981 296.491 229.257 296.491L229.257 295.991ZM265.525 295.991L265.525 296.491H265.525V295.991ZM302.39 295.991V296.491C302.666 296.491 302.89 296.267 302.89 295.991H302.39ZM302.39 149.065H302.89C302.89 148.911 302.819 148.766 302.699 148.672L302.39 149.065ZM266.05 120.491L266.359 120.098C266.209 119.98 266.005 119.958 265.832 120.041C265.66 120.124 265.551 120.298 265.55 120.49L266.05 120.491ZM266.049 120.836L265.739 121.228C265.889 121.347 266.094 121.369 266.266 121.286C266.439 121.203 266.549 121.029 266.549 120.837L266.049 120.836ZM229.257 120.991H265.057V119.991H229.257V120.991ZM229.757 295.991V120.491H228.757V295.991H229.757ZM265.525 295.491L229.257 295.491L229.257 296.491L265.525 296.491L265.525 295.491ZM302.39 295.491H265.525V296.491H302.39V295.491ZM301.89 149.065V295.991H302.89V149.065H301.89ZM265.741 120.884L302.081 149.458L302.699 148.672L266.359 120.098L265.741 120.884ZM266.549 120.837L266.55 120.493L265.55 120.49L265.549 120.834L266.549 120.837ZM265.057 120.991C265.315 120.991 265.551 121.079 265.739 121.228L266.36 120.444C266.002 120.161 265.549 119.991 265.057 119.991V120.991Z" fill="#333333"/>
<path fill-rule="evenodd" clip-rule="evenodd" d="M112.685 295.991H212.023V233.018H112.685V295.991Z" fill="white" stroke="#333333" stroke-linejoin="round"/>
<path fill-rule="evenodd" clip-rule="evenodd" d="M112.685 295.991H153.499V233.018H113.09L112.685 295.991Z" stroke="#333333" stroke-linejoin="round"/>
<path d="M153.499 284.293H212.023" stroke="#333333" stroke-linejoin="round"/>
<path fill-rule="evenodd" clip-rule="evenodd" d="M134.478 268.278C129.63 268.278 125.7 272.225 125.7 277.093V295.991H143.257V277.093C143.257 272.225 139.327 268.278 134.478 268.278Z" fill="#DEE6FD"/>
<path d="M182.761 259.463V284.211" stroke="#333333" stroke-linejoin="round"/>
<path fill-rule="evenodd" clip-rule="evenodd" d="M142.991 259.221V259.221C137.412 259.221 132.889 254.659 132.889 249.031V233.017H153.094V249.031C153.094 254.659 148.571 259.221 142.991 259.221" fill="#FFBE5E"/>
<path d="M142.991 259.221V259.221C137.412 259.221 132.889 254.659 132.889 249.031V233.017H153.094V249.031C153.094 254.659 148.571 259.221 142.991 259.221" stroke="#333333"/>
<path fill-rule="evenodd" clip-rule="evenodd" d="M122.787 259.221V259.221C117.208 259.221 112.685 254.659 112.685 249.031V233.017H132.889V249.031C132.889 254.659 128.366 259.221 122.787 259.221" fill="#FFBE5E"/>
<path d="M122.787 259.221V259.221C117.208 259.221 112.685 254.659 112.685 249.031V233.017H132.889V249.031C132.889 254.659 128.366 259.221 122.787 259.221" stroke="#333333"/>
<path fill-rule="evenodd" clip-rule="evenodd" d="M162.774 259.221V259.221C157.427 259.221 153.093 254.659 153.093 249.031V233.017H172.455V249.031C172.455 254.659 168.121 259.221 162.774 259.221" fill="#FFBE5E"/>
<path d="M162.774 259.221V259.221C157.427 259.221 153.093 254.659 153.093 249.031V233.017H172.455V249.031C172.455 254.659 168.121 259.221 162.774 259.221" stroke="#333333"/>
<path fill-rule="evenodd" clip-rule="evenodd" d="M201.92 259.221V259.221C196.341 259.221 191.818 254.659 191.818 249.031V233.017H212.023V249.031C212.023 254.659 207.5 259.221 201.92 259.221" fill="#FFBE5E"/>
<path d="M201.92 259.221V259.221C196.341 259.221 191.818 254.659 191.818 249.031V233.017H212.023V249.031C212.023 254.659 207.5 259.221 201.92 259.221" stroke="#333333"/>
<path fill-rule="evenodd" clip-rule="evenodd" d="M182.137 259.221V259.221C176.79 259.221 172.456 254.659 172.456 249.031V233.017H191.818V249.031C191.818 254.659 187.484 259.221 182.137 259.221Z" fill="#FFBE5E" stroke="#333333" stroke-linejoin="round"/>
<path d="M486.278 261.923H434.305V295.494H486.278V261.923Z" fill="white"/>
<path d="M447.708 271.214H455.718V296.281H442.728V276.168C442.727 275.518 442.855 274.874 443.106 274.273C443.356 273.672 443.722 273.126 444.185 272.666C444.648 272.206 445.197 271.841 445.801 271.592C446.406 271.343 447.054 271.214 447.708 271.214V271.214Z" fill="#DEE6FD"/>
<path d="M461.147 239.212L435.338 260.891H486.955L461.147 239.212Z" fill="#FFBE5E"/>
<path d="M471.175 271.214C469.846 271.214 468.571 271.739 467.632 272.673C466.692 273.607 466.164 274.873 466.164 276.194V286.78H476.193V276.194C476.193 275.54 476.063 274.891 475.811 274.287C475.559 273.682 475.189 273.133 474.723 272.67C474.257 272.208 473.704 271.841 473.095 271.591C472.486 271.342 471.834 271.214 471.175 271.214Z" fill="#DEE6FD"/>
<path d="M434.309 261.392L460.632 239.212L486.955 261.392H460.632H434.309Z" stroke="#333333" stroke-linejoin="round"/>
<path d="M434.305 261.442H486.955V295.991H434.305V261.442Z" stroke="#333333" stroke-linejoin="round"/>
<path d="M50 296H650" stroke="#333333"/>
<defs>
<linearGradient id="paint0_linear_25_745" x1="350" y1="0" x2="350" y2="367" gradientUnits="userSpaceOnUse">
<stop offset="0.0885417" stop-color="white"/>
<stop offset="1" stop-color="#F1F3FB"/>
</linearGradient>
</defs>
</svg>
